<svg height="512" viewBox="0 0 64 64" width="512" xmlns="http://www.w3.org/2000/svg"><g id="Layer_21" data-name="Layer 21"><path d="m46 56h-39a1 1 0 0 1 0-2h39a1 1 0 0 0 1-1v-4a1 1 0 0 1 2 0v4a3 3 0 0 1 -3 3z" fill="#ffd3b6"/><path d="m29 9h-5a4 4 0 0 1 0-8h2a4 4 0 0 1 4 4v3a1 1 0 0 1 -1 1zm-5-6a2 2 0 0 0 0 4h4v-2a2 2 0 0 0 -2-2z" fill="#98deea"/><path d="m34 9h-5a1 1 0 0 1 -1-1v-3a4 4 0 0 1 4-4h2a4 4 0 0 1 0 8zm-4-2h4a2 2 0 0 0 0-4h-2a2 2 0 0 0 -2 2z" fill="#98deea"/><circle cx="13" cy="59" fill="#ff938d" r="4"/><path d="m16 60a3.972 3.972 0 0 1 -3.892-4.892 4 4 0 1 0 4.784 4.784 3.974 3.974 0 0 1 -.892.108z" fill="#f27875"/><circle cx="41" cy="59" fill="#ff938d" r="4"/><path d="m44 60a3.972 3.972 0 0 1 -3.892-4.892 4 4 0 1 0 4.784 4.784 3.974 3.974 0 0 1 -.892.108z" fill="#f27875"/><rect fill="#82d0d8" height="26" rx="2" width="20" x="10" y="21"/><path d="m18 21h4v26h-4z" fill="#f27875"/><rect fill="#82d0d8" height="26" rx="2" width="16" x="30" y="21"/><path d="m36 21h4v26h-4z" fill="#f27875"/><rect fill="#ff938d" height="14" rx="2" width="22" x="18" y="7"/><path d="m31 18a10 10 0 0 1 -10-10v-1h-1a2 2 0 0 0 -2 2v10a2 2 0 0 0 2 2h18a2 2 0 0 0 2-2v-1z" fill="#f27875"/><path d="m27 7h4v14h-4z" fill="#98deea"/><path d="m27 17.162v3.838h4v-3a9.957 9.957 0 0 1 -4-.838z" fill="#82d0d8"/><path d="m45.531 51h-37.142a4 4 0 0 1 -3.946-3.342l-3.443-20.658 52-4-3.509 24.566a4 4 0 0 1 -3.96 3.434z" fill="#ffd3b6"/><path d="m47.531 48h-20.2a24 24 0 0 1 -23.673-20.054l-.19-1.136-2.468.19 3.443 20.658a4 4 0 0 0 3.946 3.342h37.142a4 4 0 0 0 3.959-3.433l.014-.095a3.982 3.982 0 0 1 -1.973.528z" fill="#f9b995"/><rect fill="#ff938d" height="4" rx="2" width="6" x="57" y="15"/><path d="m38 13a1 1 0 0 1 -1-1v-3a1 1 0 0 1 2 0v3a1 1 0 0 1 -1 1z" fill="#fff"/><path d="m51.143 36 .286-2h-10.429v-10.077l-2 .154v9.923h-11v-9.077l-2 .154v8.923h-11v-8.077l-2 .154v7.923h-10.833l.333 2h10.5v6h-9.5l.333 2h9.167v7h2v-7h11v7h2v-7h11v7h2v-7h9l.286-2h-9.286v-6zm-25.143 6h-11v-6h11zm13 0h-11v-6h11z" fill="#f9b995"/></g></svg>